# xmcd
#
# Track frame offsets:
#	150
#	19547
#	37672
#	51518
#	67862
#	84367
#	99363
#	113875
#	131103
#	145952
#
# Disc length: 2142 seconds
#
# Revision: 1
# Processed by: cddbd v1.4PL0 Copyright (c) Steve Scherf et al.
# Submitted via: EasyCDDAExtractor 5.1.0
#
DISCID=7b085c0a
DTITLE=Reba McEntire - Greatest Hits Vol. 2
DYEAR=1993
DGENRE=Country
TTITLE0=Does He Love You
TTITLE1=You Lie
TTITLE2=Fancy
TTITLE3=For My Broken Heart
TTITLE4=Love Will Find Its Way to You
TTITLE5=They Asked About You
TTITLE6=Is There Life Out There
TTITLE7=Rumor Has It
TTITLE8=Walk On
TTITLE9=The Greatest Man I Never Knew
EXTD=
EXTT0=
EXTT1=
EXTT2=
EXTT3=
EXTT4=
EXTT5=
EXTT6=
EXTT7=
EXTT8=
EXTT9=
PLAYORDER=
